<?xml version="1.0" encoding="utf-8"?>
<!-- Generator: Adobe Illustrator 16.0.0, SVG Export Plug-In . SVG Version: 6.00 Build 0)  -->
<!DOCTYPE svg PUBLIC "-//W3C//DTD SVG 1.1//EN" "http://www.w3.org/Graphics/SVG/1.1/DTD/svg11.dtd">
<svg version="1.1" id="Layer_1" xmlns="http://www.w3.org/2000/svg" xmlns:xlink="http://www.w3.org/1999/xlink" x="0px" y="0px"
	 width="391.408px" height="102.293px" viewBox="0 0 391.408 102.293" enable-background="new 0 0 391.408 102.293"
	 xml:space="preserve">
<path fill="#0B0204" d="M158.183,82.944l-44.18-0.011c-2.731-0.04-5.421-0.714-7.856-1.973c-2.509,1.292-5.281,1.979-8.082,1.979
	l-23.12-0.011c-2.724-0.041-5.409-0.709-7.844-1.968c-2.507,1.299-5.284,1.986-8.093,1.986H2.957L18.18,57.634v-30.63L2.956,1.691
	h56.272c2.726,0.034,5.417,0.715,7.844,1.969c2.511-1.301,5.289-1.986,8.1-1.986l157.94,0.017v24.712l3.207-1.914v-4.568
	c0-10.059,8.051-18.247,17.946-18.247l23.133,0.011c2.722,0.04,5.407,0.721,7.842,1.986c2.422-1.253,5.113-1.934,7.813-1.976h23.388
	c2.723,0.042,5.413,0.723,7.842,1.976c2.439-1.266,5.128-1.946,7.841-1.98h56.321l-15.252,25.296V57.57l15.128,25.375H185.451
	l-27.268,16.388V82.946L158.183,82.944z"/>
<path fill="#FFFFFF" d="M209.157,13.613v57.41h34.959V33.722l-12.046,7.183v17.124h-10.873V13.613H209.157z"/>
<g>
	<path fill="#FFFFFF" d="M248.24,19.922v44.77c0,3.432,2.657,6.276,5.936,6.32l22.979,0.006c3.314,0,6.014-2.842,6.014-6.326v-44.77
		c0-3.432-2.654-6.27-5.929-6.315l-22.975-0.011C250.942,13.595,248.24,16.432,248.24,19.922 M260.263,55.793V28.812
		c0-1.264,0.977-2.28,2.174-2.28h6.531c1.204,0,2.167,1.016,2.167,2.28v26.981c0,1.26-0.964,2.274-2.167,2.274h-6.531
		C261.24,58.068,260.263,57.054,260.263,55.793"/>
	<path fill="#FFFFFF" d="M332.286,13.606c-3.274,0.051-5.936,2.883-5.936,6.32v44.77c0,3.49,2.695,6.327,6.019,6.327h34.982
		l-6.072-10.172V23.667l6.072-10.06H332.286L332.286,13.606z M340.535,58.08c-1.193,0-2.156-1.02-2.156-2.274V28.813
		c0-1.254,0.963-2.275,2.156-2.275h8.703V58.08H340.535L340.535,58.08z M170.103,78.258l12.047-7.241V26.431h8.703
		c1.191,0,2.167,1.022,2.167,2.274l0.006,42.318h12.012v-51.09c0-3.437-2.66-6.275-5.941-6.314l-28.994-0.005L170.103,78.258
		L170.103,78.258z M153.98,13.613v42.185c0,1.261-0.977,2.28-2.168,2.28h-6.509c-1.195,0-2.167-1.02-2.167-2.279V13.613h-12.044
		l-0.006,42.186c0,1.261-0.976,2.28-2.172,2.28h-6.509c-1.19,0-2.166-1.02-2.166-2.279V13.613h-12.032v51.083
		c0,3.432,2.661,6.273,5.932,6.32l45.818,0.005c3.319,0,6.02-2.842,6.02-6.326V13.613L153.98,13.613L153.98,13.613z M293.223,13.613
		c-3.268,0.044-5.928,2.882-5.928,6.313v51.096h12.045V55.761h10.849v15.262h12.036V19.927c0-3.431-2.662-6.27-5.93-6.313H293.223
		L293.223,13.613z M299.318,42.806V28.831c0-1.248,0.988-2.286,2.168-2.286h6.536c1.204,0,2.168,1.038,2.168,2.286v13.975H299.318
		L299.318,42.806z M24.036,13.606l6.06,10.089V60.94l-6.06,10.083h34.978c3.317,0,6.012-2.836,6.012-6.327v-44.77
		c0-3.437-2.661-6.27-5.933-6.32H24.036L24.036,13.606z M42.133,58.08l0.005-31.542h8.7c1.191,0,2.167,1.021,2.167,2.276v26.991
		c0,1.255-0.976,2.274-2.168,2.274H42.133L42.133,58.08z M69.147,19.922v44.77c0,3.432,2.661,6.276,5.938,6.32l22.98,0.006
		c3.311,0,6.012-2.842,6.012-6.326v-44.77c0-3.432-2.661-6.27-5.932-6.315l-22.972-0.011C71.848,13.595,69.147,16.432,69.147,19.922
		 M81.173,55.793V28.812c0-1.264,0.976-2.28,2.173-2.28h6.53c1.196,0,2.168,1.016,2.168,2.28v26.981c0,1.26-0.971,2.274-2.168,2.274
		h-6.53C82.15,58.068,81.173,57.054,81.173,55.793"/>
</g>
<path fill="#FFFFFF" d="M254.266,0c-10.014,0-18.298,7.655-19.478,17.505V0.012h-3.349L75.167,0c-2.791,0-5.555,0.62-8.1,1.798
	c-2.451-1.133-5.113-1.746-7.796-1.781L5.913,0.012H0l3.047,5.073l13.456,22.384v29.699L3.047,79.544L0,84.619h59.01
	c2.789,0,5.554-0.619,8.1-1.798c2.445,1.131,5.111,1.746,7.79,1.779l23.168,0.011c2.782,0,5.54-0.618,8.074-1.791
	c2.465,1.139,5.131,1.75,7.823,1.787l42.545,0.01v17.676l5.073-3.053l24.329-14.622h205.359l-3.018-5.062l-13.379-22.453V27.452
	L388.354,5.09l3.054-5.078h-5.925l-53.336,0.005c-2.729,0.035-5.407,0.648-7.864,1.793c-2.451-1.135-5.119-1.748-7.797-1.793
	h-23.404c-2.729,0.045-5.385,0.658-7.835,1.788c-2.463-1.134-5.12-1.752-7.802-1.792L254.266,0L254.266,0z M254.266,3.348
	l23.133,0.012c2.848,0.04,5.52,0.856,7.836,2.225c2.327-1.369,4.995-2.173,7.848-2.213h23.36c2.848,0.04,5.514,0.845,7.841,2.213
	c2.326-1.369,5.003-2.186,7.864-2.22l53.337-0.005l-13.959,23.156v31.512l13.851,23.242H184.984l-25.126,15.105V81.27l-45.856-0.011
	c-2.852-0.035-5.528-0.847-7.862-2.208c-2.374,1.396-5.129,2.207-8.073,2.207l-23.125-0.006c-2.842-0.034-5.516-0.846-7.838-2.201
	c-2.383,1.402-5.15,2.217-8.094,2.217H5.915l13.933-23.172V26.538L5.915,3.36l53.311,0.005c2.852,0.034,5.524,0.847,7.842,2.202
	c2.388-1.402,5.154-2.218,8.1-2.218L231.44,3.36v25.987l6.553-3.903v-5.518C237.993,10.781,245.289,3.348,254.266,3.348"/>
</svg>
